<svg height="35" viewBox="0 0 202 35" width="202" xmlns="http://www.w3.org/2000/svg"><g fill="none" fill-rule="evenodd"><path d="m125.16615 33.745455h-.977625c-5.901525 0-10.70163-4.80114-10.70163-10.7025075v-4.831965c0-3.4752375-2.826697-6.3027225-6.301687-6.3027225h-2.386553c-3.475507 0-6.302475 2.827485-6.302475 6.3027225v4.831965c0 3.47499 2.826968 6.302205 6.302475 6.302205h2.386553c1.680975 0 3.28302-.64827 4.510282-1.827855l1.02879-1.0235925.28233.7571475c.383918 1.0285425.91863 1.993005 1.589558 2.8655775l.282352.36765-.33183.323325c-1.95003 1.8945-4.563945 2.93805-7.361482 2.93805h-2.386553c-5.9016375 0-10.70208-4.80114-10.70208-10.7025075v-4.831965c0-5.9013675 4.8004425-10.7023275 10.70208-10.7023275h2.386553c5.901367 0 10.701742 4.80096 10.701742 10.7023275v4.831965c0 3.47499 2.826675 6.302205 6.301575 6.302205h.977625zm2.2653 0h-.97785v-4.4003025h.97785c3.47445 0 6.3009-2.827215 6.3009-6.302205v-4.831965c0-5.9013675 4.8015-10.7023275 10.7028-10.7023275h.976725v4.399605h-.976725c-3.47535 0-6.30225 2.827485-6.30225 6.3027225v4.831965c0 5.9013675-4.8006 10.7025075-10.70145 10.7025075zm30.204225 0h.004725l.2178-.00405c5.763375-.132525 10.4517-4.9327875 10.4517-10.6984575v-15.53403286h-4.400775v15.53403286c0 3.463515-2.81565 6.290505-6.2739 6.302205-3.474225 0-6.300675-2.827215-6.300675-6.302205v-15.53403286h-4.40055v15.53403286c0 5.8966875 4.800825 10.6975575 10.701675 10.7025075z" fill="#97999b"/><path d="m4.637385 18.1875443c0-3.4067476 2.771235-6.1782526 6.1779825-6.1782526h2.3855175c3.40623 0 6.1779825 2.771505 6.1779825 6.1782526v4.829265c0 3.4067249-2.7717525 6.17895-6.1779825 6.17895h-2.3855175c-3.4067475 0-6.1779825-2.7722251-6.1779825-6.17895zm6.1779825 15.6456899h2.3855175c5.963625 0 10.81539-4.852125 10.81539-10.8164249v-4.829265c0-5.9638951-4.851765-10.81563755-10.81539-10.81563755h-2.3855175c-2.230785 0-4.386825.6847425-6.1779825 1.9469025v-9.2214h-4.637385v22.91940005c0 5.9642999 4.8517425 10.8164249 10.8153675 10.8164249zm57.6460575-.0468h1.096425v-4.6178999h-1.096425c-3.372975 0-6.1173-2.743875-6.1173-6.1175251v-10.9031399l4.39605-.0041851v-4.60403995l-.5112-.0093825s-1.527975-.028395-3.88485-.0351675v-7.18150747h-4.616775v22.73742242c0 5.9193001 4.815675 10.735425 10.734075 10.735425zm24.189075.0148501-4.557375-.0000001v-15.5392424c0-3.373425-2.74455-6.1178176-6.117975-6.1178176-3.372525 0-6.117075 2.7443926-6.117075 6.1178176v15.5243924h-4.617225v-33.47284742h4.617225v9.13621747c1.7748-1.246005 3.908925-1.9224 6.117075-1.9224 5.886225 0 10.67535 4.81553995 10.67535 10.73463755zm-36.73845-.0558001h.976725v-4.400325h-.976725c-3.4749 0-6.30225-2.8273499-6.30225-6.3022499v-4.83192c0-5.9013901-4.8006-10.70235005-10.70145-10.70235005h-2.38635c-5.9013 0-10.7019 4.80095995-10.7019 10.70235005v4.83192c0 5.9013 4.8006 10.7025749 10.7019 10.7025749h2.38635c2.79765 0 5.411925-1.04355 7.360875-2.93805l.33255-.323325-.282375-.3676499c-.672075-.8748-1.206675-1.8387001-1.589175-2.8656l-.28215-.7571251-1.02915 1.023525c-1.2276 1.1796751-2.82915 1.8279-4.510575 1.8279h-2.38635c-3.4749 0-6.30225-2.8273499-6.30225-6.3022499v-4.83192c0-3.47526 2.82735-6.302745 6.30225-6.302745h2.38635c3.4749 0 6.302025 2.827485 6.302025 6.302745v4.83192c0 5.9013 4.800825 10.7025749 10.701675 10.7025749zm124.032825-6.95745c-.812025 0-1.57185-.440775-1.982475-1.1483999-1.144575-1.9793251-1.749375-4.2328801-1.749375-6.5162926 0-7.191135 5.852475-13.04171995 13.046625-13.04171995 1.26135 0 2.28825 1.030095 2.28825 2.2961475 0 1.2665925-1.029825 2.29670995-2.29545 2.29670995-4.659075 0-8.4483 3.790395-8.4483 8.4488625 0 1.4791275.3915 2.9382075 1.133325 4.2212925.19935.34425.3042.7407.3042 1.145925 0 1.266525-1.03005 2.297475-2.2968 2.297475zm2.387475-7.6646699c0-2.00682.853875-3.8135925 2.218275-5.077575-.1179 1.4285924.576675 2.86371 1.9008 3.6278775.591975.342495 1.24965.5157 1.9089.5157 1.1763-.0007875 2.367.293265 3.457575.92304 1.73835 1.0037925 2.8764 2.6470125 3.288825 4.4608275-1.178775-.8163-2.7693-.93285-4.092525-.16875-.593325.342-1.071.8244-1.40085 1.394775-.5877 1.020825-1.43775 1.9044-2.528775 2.534175-1.73835 1.002825-3.73005 1.1668499-5.506425.61785 1.2951-.6133501 2.19105-1.9320751 2.19105-3.460725 0-.68355-.178425-1.339875-.5076-1.9104525-.589275-1.01916-.92925-2.19771-.92925-3.4567425zm1.306575 15.2566199c-4.655025 0-8.9901-2.500875-11.312325-6.5256749-.63135-1.0923751-.251775-2.49615.844425-3.1284 1.0647-.614925 2.529-.21555 3.13605.8385749 1.5057 2.6066251 4.31235 4.2255 7.324875 4.2255 1.473525 0 2.932425-.3919499 4.21605-1.1328749 1.2816-.7393501 2.349225-1.809 3.089475-3.09375.1998-.34425.490275-.632925.841275-.834975 1.062225-.6156 2.527425-.214425 3.1365.840375.406575.704025.40455 1.582425-.003825 2.29095-1.140975 1.97955-2.7891 3.629925-4.767075 4.7720249-1.981125 1.143675-4.23 1.74825-6.505425 1.74825zm12.877425-1.9143c.3519.20385.750375.3105 1.152225.3105.813825 0 1.57365-.4378499 1.980225-1.142775 1.74195-3.0165749 2.204775-6.5317499 1.303425-9.8982224-.9018-3.3674175-3.059325-6.1803225-6.074325-7.9211925-1.9764-1.141065-4.227975-1.74375-6.5178-1.74375-.818775.0018225-1.579725.43965-1.9854 1.1423475-.6327 1.096515-.256275 2.504025.8397 3.137445.352575.2031525.748125.310455 1.153125.310455 1.47915 0 2.9367.3901725 4.214925 1.1280375 4.0338 2.3294925 5.420925 7.50663 3.09285 11.54133-.6336 1.0961999-.255825 2.5026749.84105 3.1358249z" fill="#00a3e0"/></g></svg>