<svg width="152" height="48" viewBox="0 0 152 48" fill="none" xmlns="http://www.w3.org/2000/svg">
<circle cx="4" cy="4" r="2" fill="#80D8FF"/>
<circle cx="14" cy="4" r="3" fill="#40C4FF"/>
<circle cx="24" cy="4" r="4" fill="#00B0FF"/>
<circle cx="34" cy="4" r="3" fill="#40C4FF"/>
<circle cx="44" cy="4" r="2" fill="#80D8FF"/>
<circle cx="4" cy="14" r="3" fill="#40C4FF"/>
<circle cx="44" cy="14" r="3" fill="#40C4FF"/>
<circle cx="4" cy="24" r="4" fill="#00B0FF"/>
<circle cx="24" cy="24" r="4" fill="#00B0FF"/>
<circle cx="34" cy="24" r="4" fill="#00B0FF"/>
<circle cx="44" cy="24" r="4" fill="#00B0FF"/>
<circle cx="4" cy="34" r="3" fill="#40C4FF"/>
<circle cx="44" cy="34" r="3" fill="#40C4FF"/>
<circle cx="4" cy="44" r="2" fill="#80D8FF"/>
<circle cx="14" cy="44" r="3" fill="#40C4FF"/>
<circle cx="24" cy="44" r="4" fill="#00B0FF"/>
<circle cx="34" cy="44" r="3" fill="#40C4FF"/>
<circle cx="44" cy="44" r="2" fill="#80D8FF"/>
<path fill-rule="evenodd" clip-rule="evenodd" d="M19 15C18.3372 15 17.7814 15.4663 17.4435 16.0365C17.1004 16.6154 16.6154 17.1004 16.0365 17.4435C15.4663 17.7814 15 18.3372 15 19C15 19.6628 15.4664 20.2186 16.0365 20.5565C17.212 21.2532 18 22.5346 18 24C18 25.4654 17.212 26.7468 16.0365 27.4435C15.4664 27.7814 15 28.3372 15 29C15 29.6628 15.4663 30.2186 16.0365 30.5565C16.6154 30.8996 17.1004 31.3846 17.4435 31.9635C17.7814 32.5337 18.3372 33 19 33C19.6628 33 20.2186 32.5336 20.5565 31.9635C21.2532 30.788 22.5346 30 24 30C25.4654 30 26.7468 30.788 27.4435 31.9635C27.7814 32.5336 28.3372 33 29 33C29.6628 33 30.2186 32.5336 30.5565 31.9635C31.2532 30.788 32.5346 30 34 30C36.2091 30 38 31.7909 38 34C38 36.2091 36.2091 38 34 38C32.5346 38 31.2532 37.212 30.5565 36.0365C30.2186 35.4664 29.6628 35 29 35C28.3372 35 27.7814 35.4664 27.4435 36.0365C26.7468 37.212 25.4654 38 24 38C22.5346 38 21.2532 37.212 20.5565 36.0365C20.2186 35.4664 19.6628 35 19 35C18.3372 35 17.7814 35.4664 17.4435 36.0365C16.7468 37.212 15.4654 38 14 38C11.7909 38 10 36.2091 10 34C10 32.5346 10.788 31.2532 11.9635 30.5565C12.5336 30.2186 13 29.6628 13 29C13 28.3372 12.5336 27.7814 11.9635 27.4435C10.788 26.7468 10 25.4654 10 24C10 22.5346 10.788 21.2532 11.9635 20.5565C12.5336 20.2186 13 19.6628 13 19C13 18.3372 12.5336 17.7814 11.9635 17.4435C10.788 16.7468 10 15.4654 10 14C10 11.7909 11.7909 10 14 10C15.4654 10 16.7468 10.788 17.4435 11.9635C17.7814 12.5336 18.3372 13 19 13C19.6628 13 20.2186 12.5336 20.5565 11.9635C21.2532 10.788 22.5346 10 24 10C25.4654 10 26.7468 10.788 27.4435 11.9635C27.7814 12.5336 28.3372 13 29 13C29.6628 13 30.2186 12.5336 30.5565 11.9635C31.2532 10.788 32.5346 10 34 10C36.2091 10 38 11.7909 38 14C38 16.2091 36.2091 18 34 18C32.5346 18 31.2532 17.212 30.5565 16.0365C30.2186 15.4664 29.6628 15 29 15C28.3372 15 27.7814 15.4664 27.4435 16.0365C26.7468 17.212 25.4654 18 24 18C22.5346 18 21.2532 17.212 20.5565 16.0365C20.2186 15.4664 19.6628 15 19 15Z" fill="#0091EA"/>
<path d="M70.632 17.36C69.96 18.272 69.088 19.016 68.016 19.592C66.944 20.152 65.656 20.432 64.152 20.432C62.856 20.432 61.656 20.216 60.552 19.784C59.464 19.336 58.52 18.72 57.72 17.936C56.936 17.136 56.32 16.192 55.872 15.104C55.424 14 55.2 12.792 55.2 11.48C55.2 10.152 55.424 8.94402 55.872 7.85602C56.336 6.75202 56.968 5.81602 57.768 5.04802C58.584 4.26402 59.544 3.65602 60.648 3.22402C61.752 2.79202 62.952 2.57602 64.248 2.57602C64.824 2.57602 65.408 2.63202 66 2.74402C66.592 2.85602 67.16 3.02402 67.704 3.24802C68.248 3.47202 68.744 3.75202 69.192 4.08802C69.64 4.40802 70.024 4.78402 70.344 5.21602L68.472 6.65602C68.056 6.08002 67.464 5.60802 66.696 5.24002C65.944 4.85602 65.128 4.66402 64.248 4.66402C63.256 4.66402 62.36 4.84802 61.56 5.21602C60.776 5.56802 60.104 6.05602 59.544 6.68002C58.984 7.30402 58.552 8.03202 58.248 8.86402C57.944 9.68002 57.792 10.552 57.792 11.48C57.792 12.44 57.936 13.336 58.224 14.168C58.528 15 58.952 15.728 59.496 16.352C60.056 16.96 60.728 17.44 61.512 17.792C62.312 18.144 63.2 18.32 64.176 18.32C65.136 18.32 66.008 18.128 66.792 17.744C67.576 17.36 68.224 16.8 68.736 16.064L70.632 17.36Z" fill="#212121"/>
<path d="M84.1749 14.288C84.1749 15.168 84.0149 15.976 83.6949 16.712C83.3909 17.448 82.9589 18.088 82.3989 18.632C81.8549 19.16 81.2069 19.576 80.4549 19.88C79.7029 20.168 78.8949 20.312 78.0309 20.312C77.1669 20.312 76.3589 20.168 75.6069 19.88C74.8549 19.576 74.2069 19.16 73.6629 18.632C73.1189 18.088 72.6869 17.448 72.3669 16.712C72.0629 15.976 71.9109 15.168 71.9109 14.288C71.9109 13.408 72.0629 12.608 72.3669 11.888C72.6869 11.152 73.1189 10.52 73.6629 9.99202C74.2069 9.46402 74.8549 9.05602 75.6069 8.76802C76.3589 8.46402 77.1669 8.31202 78.0309 8.31202C78.8949 8.31202 79.7029 8.46402 80.4549 8.76802C81.2069 9.05602 81.8549 9.46402 82.3989 9.99202C82.9589 10.52 83.3909 11.152 83.6949 11.888C84.0149 12.608 84.1749 13.408 84.1749 14.288ZM81.8229 14.288C81.8229 13.744 81.7349 13.224 81.5589 12.728C81.3989 12.232 81.1589 11.8 80.8389 11.432C80.5189 11.048 80.1189 10.744 79.6389 10.52C79.1749 10.296 78.6389 10.184 78.0309 10.184C77.4229 10.184 76.8789 10.296 76.3989 10.52C75.9349 10.744 75.5429 11.048 75.2229 11.432C74.9029 11.8 74.6549 12.232 74.4789 12.728C74.3189 13.224 74.2389 13.744 74.2389 14.288C74.2389 14.832 74.3189 15.352 74.4789 15.848C74.6549 16.344 74.9029 16.784 75.2229 17.168C75.5429 17.552 75.9349 17.856 76.3989 18.08C76.8789 18.304 77.4229 18.416 78.0309 18.416C78.6389 18.416 79.1749 18.304 79.6389 18.08C80.1189 17.856 80.5189 17.552 80.8389 17.168C81.1589 16.784 81.3989 16.344 81.5589 15.848C81.7349 15.352 81.8229 14.832 81.8229 14.288Z" fill="#212121"/>
<path d="M87.3034 11.072C87.3034 10.768 87.2954 10.376 87.2794 9.89602C87.2634 9.41602 87.2394 8.99202 87.2074 8.62402H89.3434C89.3754 8.91202 89.3994 9.24802 89.4154 9.63202C89.4314 10 89.4394 10.304 89.4394 10.544H89.5114C89.8314 9.87202 90.2954 9.33602 90.9034 8.93602C91.5274 8.52002 92.2234 8.31202 92.9914 8.31202C93.3434 8.31202 93.6394 8.34402 93.8794 8.40802L93.7834 10.496C93.4634 10.416 93.1194 10.376 92.7514 10.376C92.2074 10.376 91.7354 10.48 91.3354 10.688C90.9354 10.88 90.5994 11.144 90.3274 11.48C90.0714 11.816 89.8794 12.208 89.7514 12.656C89.6234 13.088 89.5594 13.544 89.5594 14.024V20H87.3034V11.072Z" fill="#212121"/>
<path d="M102.143 11.504C101.887 11.088 101.527 10.752 101.063 10.496C100.599 10.224 100.079 10.088 99.5027 10.088C99.2467 10.088 98.9907 10.12 98.7347 10.184C98.4787 10.232 98.2467 10.32 98.0387 10.448C97.8467 10.56 97.6867 10.712 97.5587 10.904C97.4467 11.08 97.3907 11.304 97.3907 11.576C97.3907 12.056 97.6067 12.416 98.0387 12.656C98.4707 12.88 99.1187 13.088 99.9827 13.28C100.527 13.408 101.031 13.56 101.495 13.736C101.959 13.912 102.359 14.136 102.695 14.408C103.047 14.664 103.319 14.976 103.511 15.344C103.703 15.712 103.799 16.144 103.799 16.64C103.799 17.312 103.671 17.88 103.415 18.344C103.159 18.808 102.815 19.192 102.383 19.496C101.967 19.784 101.487 19.992 100.943 20.12C100.399 20.248 99.8387 20.312 99.2627 20.312C98.3987 20.312 97.5507 20.144 96.7187 19.808C95.9027 19.472 95.2227 18.96 94.6787 18.272L96.2867 16.904C96.5907 17.352 97.0067 17.728 97.5347 18.032C98.0787 18.336 98.6707 18.488 99.3107 18.488C99.5987 18.488 99.8707 18.464 100.127 18.416C100.399 18.352 100.639 18.256 100.847 18.128C101.071 18 101.247 17.832 101.375 17.624C101.503 17.416 101.567 17.152 101.567 16.832C101.567 16.304 101.311 15.912 100.799 15.656C100.303 15.4 99.5667 15.16 98.5907 14.936C98.2067 14.84 97.8147 14.728 97.4147 14.6C97.0307 14.456 96.6787 14.264 96.3587 14.024C96.0387 13.784 95.7747 13.488 95.5667 13.136C95.3747 12.768 95.2787 12.32 95.2787 11.792C95.2787 11.184 95.3987 10.664 95.6387 10.232C95.8947 9.78402 96.2227 9.42402 96.6227 9.15202C97.0227 8.86402 97.4787 8.65602 97.9907 8.52802C98.5027 8.38402 99.0307 8.31202 99.5747 8.31202C100.391 8.31202 101.175 8.47202 101.927 8.79202C102.695 9.11202 103.287 9.57602 103.703 10.184L102.143 11.504Z" fill="#212121"/>
<path d="M109.015 10.352C109.287 9.79202 109.751 9.31202 110.407 8.91202C111.063 8.51202 111.799 8.31202 112.615 8.31202C113.351 8.31202 113.983 8.44002 114.511 8.69602C115.039 8.93602 115.479 9.26402 115.831 9.68002C116.183 10.096 116.439 10.584 116.599 11.144C116.775 11.704 116.863 12.304 116.863 12.944V20H114.607V13.712C114.607 13.248 114.567 12.808 114.487 12.392C114.423 11.976 114.295 11.608 114.103 11.288C113.911 10.968 113.647 10.712 113.311 10.52C112.991 10.328 112.567 10.232 112.039 10.232C111.143 10.232 110.407 10.576 109.831 11.264C109.255 11.936 108.967 12.84 108.967 13.976V20H106.711V1.85602H108.967V10.352H109.015Z" fill="#212121"/>
<path d="M127.758 12.632C127.758 11.784 127.502 11.16 126.99 10.76C126.478 10.344 125.798 10.136 124.95 10.136C124.31 10.136 123.702 10.264 123.126 10.52C122.566 10.76 122.094 11.072 121.71 11.456L120.51 10.016C121.07 9.48802 121.75 9.07202 122.55 8.76802C123.366 8.46402 124.238 8.31202 125.166 8.31202C125.982 8.31202 126.686 8.43202 127.278 8.67202C127.886 8.89602 128.382 9.20802 128.766 9.60802C129.15 10.008 129.438 10.48 129.63 11.024C129.822 11.568 129.918 12.152 129.918 12.776V17.744C129.918 18.128 129.926 18.536 129.942 18.968C129.974 19.384 130.022 19.728 130.086 20H128.046C127.918 19.456 127.854 18.912 127.854 18.368H127.782C127.366 18.976 126.838 19.448 126.198 19.784C125.574 20.12 124.83 20.288 123.966 20.288C123.518 20.288 123.046 20.224 122.55 20.096C122.07 19.984 121.63 19.792 121.23 19.52C120.83 19.248 120.494 18.888 120.222 18.44C119.966 17.992 119.838 17.44 119.838 16.784C119.838 15.92 120.07 15.24 120.534 14.744C120.998 14.232 121.606 13.848 122.358 13.592C123.11 13.32 123.958 13.144 124.902 13.064C125.846 12.984 126.798 12.944 127.758 12.944V12.632ZM127.206 14.576C126.646 14.576 126.062 14.6 125.454 14.648C124.862 14.696 124.318 14.792 123.822 14.936C123.342 15.08 122.942 15.296 122.622 15.584C122.302 15.872 122.142 16.256 122.142 16.736C122.142 17.072 122.206 17.352 122.334 17.576C122.478 17.8 122.662 17.984 122.886 18.128C123.11 18.272 123.358 18.376 123.63 18.44C123.902 18.488 124.182 18.512 124.47 18.512C125.526 18.512 126.334 18.2 126.894 17.576C127.47 16.936 127.758 16.136 127.758 15.176V14.576H127.206Z" fill="#212121"/>
<path d="M135.894 10.496C136.182 9.88802 136.638 9.37602 137.262 8.96002C137.902 8.52802 138.654 8.31202 139.518 8.31202C140.286 8.31202 140.974 8.48802 141.582 8.84002C142.206 9.19202 142.694 9.77602 143.046 10.592C143.43 9.85602 143.966 9.29602 144.654 8.91202C145.342 8.51202 146.094 8.31202 146.91 8.31202C147.646 8.31202 148.278 8.44002 148.806 8.69602C149.334 8.93602 149.774 9.26402 150.126 9.68002C150.478 10.096 150.734 10.584 150.894 11.144C151.07 11.704 151.158 12.304 151.158 12.944V20H148.902V13.688C148.902 13.224 148.862 12.784 148.782 12.368C148.702 11.952 148.566 11.584 148.374 11.264C148.182 10.944 147.926 10.688 147.606 10.496C147.286 10.304 146.878 10.208 146.382 10.208C145.87 10.208 145.43 10.32 145.062 10.544C144.694 10.752 144.39 11.032 144.15 11.384C143.926 11.72 143.758 12.104 143.646 12.536C143.55 12.968 143.502 13.408 143.502 13.856V20H141.246V13.232C141.246 12.784 141.206 12.376 141.126 12.008C141.046 11.64 140.91 11.328 140.718 11.072C140.526 10.8 140.278 10.592 139.974 10.448C139.67 10.288 139.294 10.208 138.846 10.208C138.014 10.208 137.318 10.552 136.758 11.24C136.214 11.912 135.942 12.816 135.942 13.952V20H133.686V11.072C133.686 10.768 133.678 10.376 133.662 9.89602C133.646 9.41602 133.622 8.99202 133.59 8.62402H135.726C135.758 8.91202 135.782 9.24002 135.798 9.60802C135.814 9.96002 135.822 10.256 135.822 10.496H135.894Z" fill="#212121"/>
<path d="M64.512 30.152C64.176 29.688 63.72 29.312 63.144 29.024C62.568 28.72 61.92 28.568 61.2 28.568C60.816 28.568 60.424 28.624 60.024 28.736C59.64 28.832 59.288 29 58.968 29.24C58.648 29.464 58.384 29.752 58.176 30.104C57.984 30.44 57.888 30.848 57.888 31.328C57.888 31.792 57.976 32.184 58.152 32.504C58.344 32.808 58.592 33.072 58.896 33.296C59.216 33.504 59.584 33.688 60 33.848C60.432 33.992 60.888 34.144 61.368 34.304C61.944 34.48 62.528 34.68 63.12 34.904C63.712 35.128 64.248 35.424 64.728 35.792C65.208 36.16 65.6 36.624 65.904 37.184C66.208 37.728 66.36 38.424 66.36 39.272C66.36 40.152 66.192 40.92 65.856 41.576C65.536 42.216 65.104 42.752 64.56 43.184C64.016 43.6 63.384 43.912 62.664 44.12C61.96 44.328 61.232 44.432 60.48 44.432C59.408 44.432 58.368 44.224 57.36 43.808C56.368 43.392 55.544 42.776 54.888 41.96L56.736 40.4C57.136 40.992 57.672 41.472 58.344 41.84C59.016 42.208 59.744 42.392 60.528 42.392C60.928 42.392 61.328 42.336 61.728 42.224C62.128 42.112 62.488 41.936 62.808 41.696C63.144 41.456 63.416 41.16 63.624 40.808C63.832 40.44 63.936 40 63.936 39.488C63.936 38.976 63.824 38.552 63.6 38.216C63.392 37.864 63.104 37.568 62.736 37.328C62.368 37.088 61.936 36.888 61.44 36.728C60.96 36.552 60.448 36.376 59.904 36.2C59.36 36.04 58.824 35.848 58.296 35.624C57.768 35.384 57.296 35.088 56.88 34.736C56.464 34.368 56.128 33.92 55.872 33.392C55.616 32.864 55.488 32.208 55.488 31.424C55.488 30.576 55.656 29.848 55.992 29.24C56.344 28.632 56.792 28.128 57.336 27.728C57.896 27.328 58.52 27.04 59.208 26.864C59.912 26.672 60.616 26.576 61.32 26.576C62.312 26.576 63.24 26.752 64.104 27.104C64.968 27.456 65.664 27.928 66.192 28.52L64.512 30.152Z" fill="#212121"/>
<path d="M77.5761 35.504C77.3361 35.136 76.9761 34.832 76.4961 34.592C76.0161 34.336 75.5041 34.208 74.9601 34.208C74.3681 34.208 73.8401 34.32 73.3761 34.544C72.9281 34.768 72.5441 35.072 72.2241 35.456C71.9041 35.824 71.6561 36.256 71.4801 36.752C71.3201 37.248 71.2401 37.768 71.2401 38.312C71.2401 38.856 71.3201 39.376 71.4801 39.872C71.6561 40.368 71.9041 40.808 72.2241 41.192C72.5441 41.56 72.9361 41.856 73.4001 42.08C73.8641 42.304 74.3921 42.416 74.9841 42.416C75.5601 42.416 76.0801 42.304 76.5441 42.08C77.0241 41.856 77.4161 41.552 77.7201 41.168L79.2321 42.536C78.7521 43.096 78.1521 43.536 77.4321 43.856C76.7121 44.16 75.8961 44.312 74.9841 44.312C74.1041 44.312 73.2881 44.168 72.5361 43.88C71.8001 43.592 71.1601 43.192 70.6161 42.68C70.0721 42.152 69.6401 41.52 69.3201 40.784C69.0161 40.048 68.8641 39.224 68.8641 38.312C68.8641 37.416 69.0161 36.6 69.3201 35.864C69.6241 35.128 70.0481 34.496 70.5921 33.968C71.1361 33.44 71.7761 33.032 72.5121 32.744C73.2641 32.456 74.0721 32.312 74.9361 32.312C75.7361 32.312 76.5281 32.472 77.3121 32.792C78.1121 33.112 78.7441 33.576 79.2081 34.184L77.5761 35.504Z" fill="#212121"/>
<path d="M83.7474 44H81.4914V32.624H83.7474V44ZM84.1314 28.52C84.1314 28.936 83.9794 29.28 83.6754 29.552C83.3874 29.824 83.0354 29.96 82.6194 29.96C82.2034 29.96 81.8514 29.824 81.5634 29.552C81.2754 29.264 81.1314 28.92 81.1314 28.52C81.1314 28.104 81.2754 27.76 81.5634 27.488C81.8514 27.2 82.2034 27.056 82.6194 27.056C83.0354 27.056 83.3874 27.2 83.6754 27.488C83.9794 27.76 84.1314 28.104 84.1314 28.52Z" fill="#212121"/>
<path d="M96.0064 37.304C95.9904 36.856 95.9104 36.44 95.7664 36.056C95.6384 35.656 95.4384 35.312 95.1664 35.024C94.9104 34.736 94.5824 34.512 94.1824 34.352C93.7984 34.176 93.3424 34.088 92.8144 34.088C92.3344 34.088 91.8784 34.176 91.4464 34.352C91.0304 34.512 90.6624 34.736 90.3424 35.024C90.0384 35.312 89.7824 35.656 89.5744 36.056C89.3824 36.44 89.2704 36.856 89.2384 37.304H96.0064ZM98.2864 38.216C98.2864 38.344 98.2864 38.472 98.2864 38.6C98.2864 38.728 98.2784 38.856 98.2624 38.984H89.2384C89.2544 39.464 89.3584 39.92 89.5504 40.352C89.7584 40.768 90.0304 41.136 90.3664 41.456C90.7024 41.76 91.0864 42 91.5184 42.176C91.9664 42.352 92.4384 42.44 92.9344 42.44C93.7024 42.44 94.3664 42.272 94.9264 41.936C95.4864 41.6 95.9264 41.192 96.2464 40.712L97.8304 41.984C97.2224 42.784 96.5024 43.376 95.6704 43.76C94.8544 44.128 93.9424 44.312 92.9344 44.312C92.0704 44.312 91.2704 44.168 90.5344 43.88C89.7984 43.592 89.1664 43.192 88.6384 42.68C88.1104 42.152 87.6944 41.52 87.3904 40.784C87.0864 40.048 86.9344 39.232 86.9344 38.336C86.9344 37.456 87.0784 36.648 87.3664 35.912C87.6704 35.16 88.0864 34.52 88.6144 33.992C89.1424 33.464 89.7664 33.056 90.4864 32.768C91.2064 32.464 91.9824 32.312 92.8144 32.312C93.6464 32.312 94.3984 32.448 95.0704 32.72C95.7584 32.992 96.3344 33.384 96.7984 33.896C97.2784 34.408 97.6464 35.032 97.9024 35.768C98.1584 36.488 98.2864 37.304 98.2864 38.216Z" fill="#212121"/>
<path d="M103.476 32.624C103.508 32.912 103.532 33.24 103.548 33.608C103.564 33.96 103.572 34.256 103.572 34.496H103.644C103.788 34.192 103.98 33.912 104.22 33.656C104.476 33.384 104.764 33.152 105.084 32.96C105.404 32.752 105.756 32.592 106.14 32.48C106.524 32.368 106.924 32.312 107.34 32.312C108.076 32.312 108.708 32.44 109.236 32.696C109.764 32.936 110.204 33.264 110.556 33.68C110.908 34.096 111.164 34.584 111.324 35.144C111.5 35.704 111.588 36.304 111.588 36.944V44H109.332V37.688C109.332 37.224 109.292 36.784 109.212 36.368C109.148 35.952 109.02 35.584 108.828 35.264C108.636 34.944 108.372 34.688 108.036 34.496C107.7 34.304 107.268 34.208 106.74 34.208C105.844 34.208 105.108 34.552 104.532 35.24C103.972 35.912 103.692 36.816 103.692 37.952V44H101.436V35.072C101.436 34.768 101.428 34.376 101.412 33.896C101.396 33.416 101.372 32.992 101.34 32.624H103.476Z" fill="#212121"/>
<path d="M123.373 35.504C123.133 35.136 122.773 34.832 122.293 34.592C121.813 34.336 121.301 34.208 120.757 34.208C120.165 34.208 119.637 34.32 119.173 34.544C118.725 34.768 118.341 35.072 118.021 35.456C117.701 35.824 117.453 36.256 117.277 36.752C117.117 37.248 117.037 37.768 117.037 38.312C117.037 38.856 117.117 39.376 117.277 39.872C117.453 40.368 117.701 40.808 118.021 41.192C118.341 41.56 118.733 41.856 119.197 42.08C119.661 42.304 120.189 42.416 120.781 42.416C121.357 42.416 121.877 42.304 122.341 42.08C122.821 41.856 123.213 41.552 123.517 41.168L125.029 42.536C124.549 43.096 123.949 43.536 123.229 43.856C122.509 44.16 121.693 44.312 120.781 44.312C119.901 44.312 119.085 44.168 118.333 43.88C117.597 43.592 116.957 43.192 116.413 42.68C115.869 42.152 115.437 41.52 115.117 40.784C114.813 40.048 114.661 39.224 114.661 38.312C114.661 37.416 114.813 36.6 115.117 35.864C115.421 35.128 115.845 34.496 116.389 33.968C116.933 33.44 117.573 33.032 118.309 32.744C119.061 32.456 119.869 32.312 120.733 32.312C121.533 32.312 122.325 32.472 123.109 32.792C123.909 33.112 124.541 33.576 125.005 34.184L123.373 35.504Z" fill="#212121"/>
<path d="M135.592 37.304C135.576 36.856 135.496 36.44 135.352 36.056C135.224 35.656 135.024 35.312 134.752 35.024C134.496 34.736 134.168 34.512 133.768 34.352C133.384 34.176 132.928 34.088 132.4 34.088C131.92 34.088 131.464 34.176 131.032 34.352C130.616 34.512 130.248 34.736 129.928 35.024C129.624 35.312 129.368 35.656 129.16 36.056C128.968 36.44 128.856 36.856 128.824 37.304H135.592ZM137.872 38.216C137.872 38.344 137.872 38.472 137.872 38.6C137.872 38.728 137.864 38.856 137.848 38.984H128.824C128.84 39.464 128.944 39.92 129.136 40.352C129.344 40.768 129.616 41.136 129.952 41.456C130.288 41.76 130.672 42 131.104 42.176C131.552 42.352 132.024 42.44 132.52 42.44C133.288 42.44 133.952 42.272 134.512 41.936C135.072 41.6 135.512 41.192 135.832 40.712L137.416 41.984C136.808 42.784 136.088 43.376 135.256 43.76C134.44 44.128 133.528 44.312 132.52 44.312C131.656 44.312 130.856 44.168 130.12 43.88C129.384 43.592 128.752 43.192 128.224 42.68C127.696 42.152 127.28 41.52 126.976 40.784C126.672 40.048 126.52 39.232 126.52 38.336C126.52 37.456 126.664 36.648 126.952 35.912C127.256 35.16 127.672 34.52 128.2 33.992C128.728 33.464 129.352 33.056 130.072 32.768C130.792 32.464 131.568 32.312 132.4 32.312C133.232 32.312 133.984 32.448 134.656 32.72C135.344 32.992 135.92 33.384 136.384 33.896C136.864 34.408 137.232 35.032 137.488 35.768C137.744 36.488 137.872 37.304 137.872 38.216Z" fill="#212121"/>
</svg>
