<svg height="35" viewBox="0 0 204 35" width="204" xmlns="http://www.w3.org/2000/svg"><g fill="none"><g fill="#000" transform="translate(40.658824 7.986556)"><path d="m11.7620168.07260504h5.3001681v17.78823526h-3.412437v-11.97983189-1.45210085-1.45210083l-3.3398319 14.88403357h-3.55764709l-3.33983194-14.88403357v1.45210083 1.45210085 11.97983189h-3.41243697v-17.78823526h5.37277312l3.19462185 13.94016806z"/><path d="m23.8144538 3.19462185h-3.485042v-3.19462185h3.485042zm-3.485042 1.52470588h3.485042v13.14151257h-3.485042z"/><path d="m34.777815 9.43865547c-.072605-.5082353-.217815-.94386556-.5082353-1.30689076-.363025-.5082353-1.0164705-.79865547-1.8151259-.79865547-1.1616806 0-1.9603362.58084035-2.3959664 1.74252102-.2178151.58084033-.3630253 1.45210084-.3630253 2.39596634 0 .9438656.1452102 1.742521.3630253 2.3233614.4356302 1.0890756 1.1616806 1.6699159 2.3233614 1.6699159.7986553 0 1.3794956-.2178151 1.7425209-.6534453.3630253-.4356303.5082353-1.0164706.5808403-1.669916h3.4850421c-.072605 1.0164706-.4356303 2.0329412-1.1616806 2.9768067-1.0890756 1.5247059-2.6863865 2.2507563-4.7919329 2.2507563-2.1055462 0-3.6302521-.6534453-4.6467227-1.8877311-1.0164706-1.2342857-1.5247059-2.9042016-1.5247059-4.8645378 0-2.25075629.5808403-3.99327729 1.6699161-5.227563 1.0890756-1.23428573 2.6137815-1.88773109 4.5741177-1.88773109 1.6699159 0 2.9768065.36302521 4.0658823 1.08907563 1.0164706.72605041 1.6699159 2.03294117 1.887731 3.92067226h-3.4850421z"/><path d="m47.8467227 4.42890756h.2904202v3.55764706c-.2178152 0-.4356303-.07260503-.5808403-.07260503h-.4356303c-1.3794958 0-2.3233614.43563024-2.7589917 1.37949579-.29042.5082353-.363025 1.30689072-.363025 2.32336132v6.2440336h-3.4124371v-13.14151257h3.2672268v2.32336135c.5082353-.87126052 1.0164706-1.45210084 1.3794959-1.81512605.6534453-.5082353 1.4521008-.79865547 2.4685714-.79865547z"/><path d="m60.9882353 16.2635294c-1.0890756 1.3794958-2.7589915 2.0329412-5.0097479 2.0329412-2.2507562 0-3.9206724-.6534454-5.009748-2.0329412s-1.6699159-3.0494118-1.6699159-4.9371428c0-1.88773113.5808403-3.5576471 1.6699159-4.9371429 1.0890756-1.37949579 2.7589918-2.10554623 5.009748-2.10554623 2.2507564 0 3.9206723.72605044 5.0097479 2.10554623 1.0890756 1.3794958 1.6699159 3.04941177 1.6699159 4.9371429-.072605 1.887731-.5808403 3.557647-1.6699159 4.9371428zm-2.7589915-1.8877311c.5082353-.7260504.7986553-1.742521.7986553-3.0494117 0-1.3068908-.29042-2.32336139-.7986553-3.04941181-.5082353-.72605041-1.3068909-1.08907564-2.3233614-1.08907564-1.0164706 0-1.742521.36302523-2.3233615 1.08907564-.5082353.72605042-.7986553 1.74252101-.7986553 3.04941181 0 1.3068907.29042 2.3233613.7986553 3.0494117s1.3068909 1.0890756 2.3233615 1.0890756c1.0164705 0 1.8151261-.3630252 2.3233614-1.0890756z"/><path d="m71.5159664 4.71932773c.7986554.36302521 1.5247059.94386554 2.0329412 1.88773109v-1.88773109h3.3398318v12.48806727c0 1.6699159-.29042 2.9768067-.8712603 3.8480672-.9438656 1.4521008-2.8315967 2.2507563-5.5905883 2.2507563-1.6699161 0-3.0494117-.3630253-4.0658823-1.0164706-1.0890758-.6534453-1.6699161-1.669916-1.7425211-2.9768067h3.702857c.0726053.4356302.2178153.7260504.4356303.8712605.3630253.2904202 1.0164706.4356302 1.8877312.4356302 1.2342856 0 2.0329412-.4356302 2.4685714-1.2342857.2904201-.5082353.4356303-1.4521008.4356303-2.6863865v-.8712605c-.3630252.5808403-.6534455 1.0164705-1.0890756 1.2342857-.6534455.5082353-1.5973111.7986554-2.6863867.7986554-1.6699159 0-3.0494117-.5808403-3.9932773-1.742521-1.0164706-1.1616807-1.5247059-2.7589916-1.5247059-4.7919327 0-1.96033619.5082353-3.5576471 1.4521009-4.9371429.9438655-1.30689076 2.3233614-1.96033614 4.1384873-1.96033614.6534456 0 1.2342859.07260505 1.6699161.29042017zm1.1616807 9.43865547c.5808403-.5808403.7986555-1.5973109.7986555-2.9042017 0-1.2342857-.2904202-2.17815124-.7986555-2.83159662s-1.2342857-.94386556-2.1055462-.94386556c-1.1616806 0-2.0329412.58084035-2.4685715 1.66991597-.217815.58084033-.3630253 1.37949581-.3630253 2.25075631 0 .7986555.1452103 1.4521008.3630253 2.0329412.4356303 1.0890756 1.3068909 1.6699159 2.4685715 1.6699159.8712605-.072605 1.5973109-.3630252 2.1055462-.9438655z"/><path d="m88.6507562 5.00974791c.9438656.43563024 1.6699161 1.08907562 2.2507564 1.96033612.5082353.79865547.8712606 1.66991597 1.0164706 2.68638656.072605.58084031.14521 1.45210081.14521 2.61378151h-9.5112605c.0726052 1.3068908.5082353 2.2507563 1.3794958 2.7589916.5082353.3630252 1.1616807.5082353 1.8877312.5082353.7986553 0 1.3794959-.2178151 1.8877311-.5808404.2904201-.2178151.5082353-.5082352.7260504-.8712605h3.485042c-.072605.7986555-.5082353 1.597311-1.2342858 2.3959664-1.1616806 1.3068908-2.8315965 1.8877311-4.9371427 1.8877311-1.7425211 0-3.267227-.5082353-4.5741177-1.5973109-1.3068908-1.0890756-2.0329411-2.8315966-2.0329411-5.227563 0-2.25075632.5808403-3.99327732 1.8151259-5.22756305 1.2342858-1.23428571 2.7589917-1.81512604 4.6467226-1.81512604 1.0890759-.14521008 2.1055464.07260504 3.0494118.5082353zm-5.1549579 2.97680671c-.5082353.50823529-.7986554 1.16168067-.9438656 2.03294118h5.8810085c-.072605-.94386554-.3630253-1.59731092-.9438656-2.10554621-.5808403-.5082353-1.2342856-.72605044-2.0329412-.72605044-.7986553 0-1.4521008.29042017-1.9603361.79865547z"/><path d="m104.551261 5.5179832c.87126.72605042 1.30689 1.88773109 1.30689 3.55764706v8.85781514h-3.485042v-7.98655464c0-.72605043-.072605-1.23428573-.29042-1.59731093-.363025-.65344539-.943865-1.01647059-1.887731-1.01647059-1.1616807 0-1.9603362.50823529-2.3959665 1.45210085-.217815.50823529-.3630251 1.16168067-.3630251 2.03294121v7.1152941h-3.412437v-13.06890758h3.339832v1.88773109c.4356301-.65344538.8712604-1.16168067 1.2342857-1.45210085.7260503-.50823529 1.5973109-.79865545 2.6863869-.79865545 1.30689-.07260505 2.395966.29042016 3.267227 1.01647059z"/><path d="m117.547563 5.00974791c.943866.43563024 1.669916 1.08907562 2.250756 1.96033612.508236.79865547.871261 1.66991597 1.016471 2.68638656.072605.58084031.14521 1.45210081.14521 2.61378151h-9.511261c.072605 1.3068908.508236 2.2507563 1.379496 2.7589916.508236.3630252 1.161681.5082353 1.887731.5082353.798656 0 1.379496-.2178151 1.887731-.5808404.290421-.2178151.508236-.5082352.726051-.8712605h3.485042c-.072605.7986555-.508235 1.597311-1.234286 2.3959664-1.16168 1.3068908-2.831596 1.8877311-4.937143 1.8877311-1.742521 0-3.267227-.5082353-4.574117-1.5973109-1.306891-1.0890756-2.032941-2.8315966-2.032941-5.227563 0-2.25075632.58084-3.99327732 1.815126-5.22756305 1.234285-1.23428571 2.758991-1.81512604 4.646722-1.81512604 1.089076-.14521008 2.178152.07260504 3.049412.5082353zm-5.082353 2.97680671c-.508235.50823529-.798655 1.16168067-.943866 2.03294118h5.881009c-.072605-.94386554-.363025-1.59731092-.943866-2.10554621-.58084-.5082353-1.234285-.72605044-2.032941-.72605044-.798655 0-1.524706.29042017-1.960336.79865547z"/><path d="m121.613445 7.33310924v-2.46857142h1.815126v-3.63025211h3.412437v3.63025211h2.105547v2.46857142h-2.105547v6.97008406c0 .5082353.072606.8712605.217816 1.0164706.14521.14521.58084.2178151 1.234285.2178151h.363025.363026v2.5411765l-1.597311.072605c-1.597311.0726051-2.686387-.2178151-3.339832-.8712605-.363025-.3630252-.580841-1.0164706-.580841-1.8151261v-8.13176466z"/><path d="m134.682353 3.19462185h-3.485042v-3.19462185h3.485042zm-3.485042 1.52470588h3.485042v13.14151257h-3.485042z"/><path d="m145.645714 9.43865547c-.072605-.5082353-.217815-.94386556-.508235-1.30689076-.363025-.5082353-1.016471-.79865547-1.815126-.79865547-1.161681 0-1.960336.58084035-2.395967 1.74252102-.217815.58084033-.363025 1.45210084-.363025 2.39596634 0 .9438656.14521 1.742521.363025 2.3233614.435631 1.0890756 1.161681 1.6699159 2.323362 1.6699159.798655 0 1.379496-.2178151 1.742521-.6534453.363025-.4356303.508235-1.0164706.58084-1.669916h3.485042c-.072605 1.0164706-.43563 2.0329412-1.16168 2.9768067-1.089076 1.5247059-2.686387 2.2507563-4.791933 2.2507563s-3.630252-.6534453-4.646723-1.8877311c-1.016471-1.2342857-1.524706-2.9042016-1.524706-4.8645378 0-2.25075629.580841-3.99327729 1.669916-5.227563 1.089076-1.23428573 2.613782-1.88773109 4.574118-1.88773109 1.669916 0 2.976807.36302521 4.065882 1.08907563 1.016471.72605041 1.669916 2.03294117 1.887731 3.92067226h-3.485042z"/><path d="m154.140504 13.6497479c.072605.5808403.217815 1.0164706.43563 1.3068907.435631.4356303 1.234286.6534454 2.395967.6534454.653445 0 1.234285-.072605 1.597311-.2904201.363025-.2178152.58084-.5082353.58084-.8712605 0-.3630253-.14521-.6534454-.508235-.8712605-.29042-.2178152-1.524706-.5808404-3.557647-1.0164706-1.452101-.3630252-2.541177-.7986555-3.122017-1.3794958-.58084-.5808404-.943866-1.30689079-.943866-2.39596641 0-1.23428571.508236-2.2507563 1.452101-3.12201682.943866-.8712605 2.323362-1.30689074 3.993278-1.30689074 1.669915 0 2.976806.3630252 3.993277 1.01647059 1.016471.65344538 1.597311 1.81512603 1.742521 3.41243697h-3.412437c-.072605-.43563026-.14521-.79865547-.363025-1.01647059-.363026-.43563026-1.016471-.72605042-1.960336-.72605042-.726051 0-1.306891.14521007-1.597311.36302521-.290421.21781512-.508236.5082353-.508236.79865545 0 .36302523.14521.65344538.508236.87126052.363025.21781512 1.524706.5082353 3.557647.94386554 1.379495.2904202 2.395966.7986555 3.049412 1.4521008.653445.6534454 1.01647 1.4521009 1.01647 2.4685715 0 1.3068907-.508235 2.3959663-1.452101 3.1946218-.943865.7986555-2.468571 1.2342857-4.501512 1.2342857-2.032942 0-3.557647-.4356302-4.574118-1.3068907s-1.452101-1.9603362-1.452101-3.339832h3.630252z"/></g><path d="m17.4252101 8.71260503c3.7754622 0 6.2440337 1.81512607 8.1317646 3.92067227.1452103.1452101.2178153.2904202.3630253.4356303.14521.14521.217815.2904201.3630253.4356302.6534453.7986555 1.1616806 1.669916 1.6699159 2.3959664.3630252.5082353.6534453 1.0164706 1.0164706 1.4521008.14521.1452101.217815.2904202.3630252.4356303.1452101.1452101.2178151.2904202.3630251.4356303 1.3794959 1.6699159 2.7589917 2.7589915 4.7919329 2.9042016.29042-1.2342857.4356303-2.4685714.4356303-3.7754622 0-1.3068907-.1452103-2.6137815-.4356303-3.7754621-2.0329412.14521-3.412437 1.1616806-4.7919329 2.9042016-.217815-.3630252-.5082353-.7260504-.7986553-1.1616806-.5808404-.7986555-1.1616807-1.742521-1.8877312-2.6863866 1.4521009-1.6699159 3.267227-3.1220168 5.7357983-3.70285713-3.0494118-5.30016808-8.7852101-8.93042017-15.3196638-8.93042017-6.5344538 0-12.27025213 3.63025209-15.24705884 8.93042017 2.46857142.58084033 4.21109244 2.03294123 5.73579833 3.70285713.14521008.1452101.21781512.2904202.3630252.4356303.14521009.14521.21781512.2904201.36302521.4356302.72605041.8712605 1.30689076 1.8151261 1.8877311 2.6863866.2904202.4356302.5082353.7986554.7986555 1.1616806.14521.1452101.2178151.2904202.3630252.5082353.1452101.1452101.2178151.2904202.3630252.5082353 1.5247059 2.1055463 3.0494117 3.5576471 5.4453781 3.5576471s3.9206723-1.4521008 5.4453781-3.5576471c.1452101.2904202.3630253.5082353.5082353.7986555.6534454.9438655 1.3068909 2.0329412 2.1055462 2.9768068-1.8151259 2.1055462-4.3563024 3.9206721-8.1317646 3.9206721s-6.2440336-1.8151259-8.13176472-3.9206721c-.14521009-.1452102-.21781512-.2904203-.36302521-.4356303-.14521008-.1452102-.21781514-.2904202-.3630252-.4356303-.65344538-.7986554-1.16168068-1.6699159-1.66991597-2.3959664-.36302521-.5082353-.65344538-1.0164706-1.01647059-1.4521008-.14521009-.1452101-.21781514-.2904202-.36302521-.4356303-.14521008-.1452101-.21781514-.2904201-.36302523-.4356302-1.37949579-1.669916-2.75899159-2.7589916-4.79193276-2.9042017-.21781513 1.1616807-.36302521 2.4685714-.36302521 3.7754622 0 1.3068907.14521008 2.6137815.43563025 3.7754622 2.03294119-.1452101 3.41243698-1.1616807 4.79193278-2.9042017.21781512.3630252.50823529.7260504.79865547 1.1616807.58084032.7986554 1.16168065 1.742521 1.88773109 2.6863866-1.45210085 1.6699159-3.26722691 3.1220168-5.73579833 3.7028571 2.97680671 5.372773 8.71260504 9.0030253 15.24705884 9.0030253 6.5344537 0 12.270252-3.6302523 15.2470587-8.9304203-2.4685714-.5808403-4.2110923-2.0329412-5.7357982-3.7028571-.14521-.1452102-.217815-.2904202-.3630253-.4356303-.14521-.14521-.217815-.2904202-.363025-.4356302-.7260506-.8712605-1.3068909-1.8151261-1.8877312-2.6863866-.2904203-.4356302-.5082353-.7986555-.7986555-1.1616807-.1452101-.1452101-.2178151-.2904201-.3630251-.5082353-.1452102-.1452101-.2178153-.2904201-.3630253-.5082353-1.5247059-2.1055462-3.0494118-3.557647-5.4453782-3.557647s-3.9206722 1.4521008-5.4453781 3.557647c-.1452101-.2904201-.3630252-.5082353-.5082353-.7986554-.6534454-.9438656-1.3068908-2.0329412-2.10554622-2.9768067 1.88773112-2.1781513 4.35630252-3.99327737 8.13176472-3.99327737z" fill="#f00"/></g></svg>