<svg height="36" viewBox="0 0 173 36" width="173" xmlns="http://www.w3.org/2000/svg"><g fill="none" fill-rule="evenodd"><path d="m8.5007925 10.822725c-2.719125 0-4.931325 2.2122-4.931325 4.931325v3.81735c0 2.719125 2.2122 4.931325 4.931325 4.931325h.433125c2.719125 0 4.93155-2.2122 4.93155-4.931325v-3.81735c0-2.719125-2.212425-4.931325-4.93155-4.931325zm-4.9313925 25.177275h-3.5694v-20.24595c0-4.6872 3.8133-8.500725 8.500725-8.500725h.433125c4.687425 0 8.500725 3.81375 8.500725 8.500725v3.81735c0 4.687425-3.8133 8.50095-8.500725 8.50095h-.433125c-1.784925 0-3.508875-.558-4.931325-1.58445z" fill="#00a3e0"/><path d="m52.9659 28.00215h-3.381525v-12.260475c0-2.773125-2.256075-5.029425-5.0292-5.029425h-.43425c-2.773125 0-5.029425 2.2563-5.029425 5.029425v3.8196c0 2.773125 2.2563 5.0292 5.029425 5.0292h.43425c1.341225 0 2.619225-.517725 3.598425-1.458l.981-.97515v.8739c0 .5031-.003825 1.3635-.0072 2.109375-.002475.569025-.00495 1.07145-.00495 1.296v.203175l-.173025.106425c-1.3032.8019-2.82285 1.226025-4.39425 1.226025h-.43425c-4.6377 0-8.410725-3.77325-8.410725-8.41095v-3.8196c0-4.6377 3.773025-8.410725 8.410725-8.410725h.43425c4.6377 0 8.410725 3.773025 8.410725 8.410725z" fill="#00a3e0"/><path d="m35.01162 28.0161009h-3.506625v-12.23415c0-2.692575-2.190375-4.8834-4.883175-4.8834-2.692575 0-4.883175 2.190825-4.883175 4.8834v12.221775h-3.552975v-27.8118h3.552975v8.7183c1.40985-1.013625 3.1167-1.56465 4.883175-1.56465 4.626225 0 8.3898 3.7845 8.3898 8.436375z" fill="#00a3e0"/><path d="m138.13065 27.970875h-.434475c-4.621725 0-8.39475-3.76065-8.410725-8.382825v-3.8475c0-4.6377 3.77325-8.4105 8.410725-8.4105h.434475c4.637475 0 8.4105 3.7728 8.4105 8.4105v3.819825c-.013725 4.637925-3.78675 8.4105-8.4105 8.4105zm-.434407-17.25975c-2.773126 0-5.0292 2.2563-5.0292 5.029425v3.819825c0 2.7729 2.256074 5.028975 5.0292 5.028975h.434475c2.773124 0 5.0292-2.256075 5.0292-5.028975v-3.819825c0-2.773125-2.256076-5.029425-5.0292-5.029425z" fill="#00a3e0"/><path d="m154.413922 21.5613c-.869625-1.50435-1.371825-3.25035-1.371825-5.112675 0-5.650425 4.5864-10.233675 10.2366-10.233675.961425 0 1.7334.779175 1.7334 1.740375s-.778275 1.740825-1.73925 1.740825c-3.72915 0-6.752475 3.0231-6.752475 6.75225 0 1.22985.332325 2.381175.906525 3.374325.1476.255375.229725.551925.229725.868275 0 .9612-.779175 1.740375-1.7406 1.740375-.643275 0-1.200825-.351225-1.5021-.870075zm5.14305-9.126c-1.078425.998775-1.753425 2.4273-1.753425 4.0131 0 .995625.26865 1.926675.734625 2.732175.260325.45135.401625.969525.401625 1.510425 0 1.20825-.7083 2.25045-1.7325 2.734875 1.40445.434025 2.978775.304425 4.3524-.48825.8622-.497925 1.534275-1.196325 1.9989-2.002725.260325-.450675.638775-.832275 1.107-1.1025 1.04625-.60435 2.303325-.511875 3.2346.1332-.326025-1.433475-1.22535-2.7324-2.598975-3.5253-.8622-.497925-1.802925-.7308-2.73375-.730125-.520425 0-1.040175-.137025-1.5084-.40725-1.04625-.6039-1.5948-1.7388-1.5021-2.867625zm8.124885 10.881c-.867825 1.50525-2.128725 2.8134-3.741525 3.744675-4.8933 2.824875-11.155725 1.1448-13.981052-3.7485-.4806-.832275-.191924-1.891125.640575-2.371275.832275-.480825 1.896527-.196425 2.377127.63585 1.864575 3.229425 5.99445 4.335975 9.223875 2.4714 1.06515-.6147 1.896075-1.47825 2.468925-2.4723.1476-.255375.363375-.474525.6372-.632925.8325-.48015 1.89675-.195075 2.37735.637425.32175.5571.296775 1.21545-.002475 1.73565zm-5.113755-12.3678c1.73745-.0009 3.500775.437175 5.113575 1.36845 4.893548 2.8251 6.569573 9.08865 3.744225 13.98195-.4806.832275-1.54125 1.1115-2.37375.631125-.832275-.480825-1.11825-1.544625-.637875-2.377125 1.864575-3.229425.758025-7.35885-2.471625-9.223875-1.064925-.614925-2.22795-.9027-3.37545-.9018-.2952 0-.592875-.0774-.8667-.23535-.8325-.480825-1.117575-1.545075-.636975-2.37735.32175-.5571.9045-.8649 1.504575-.866025z" fill="#97999b"/><g fill="#00a3e0"><path d="m57.090375 27.970875h-3.3813v-20.6478h3.3813v1.68435c1.449-1.0854 3.20715-1.67625 5.028525-1.677375l.172125.002025c.690075.015975 1.372275.115875 2.0313.297225l.267075.073575v3.633075l-.50715-.218025c-.621225-.2673-1.282275-.4041-1.964475-.406575-2.77155 0-5.0274 2.256075-5.0274 5.0292z"/><path d="m95.5233 27.970875h-3.381525v-12.230325c0-2.76345-2.246625-5.019525-5.0085-5.0292-2.77155 0-5.027175 2.256075-5.027175 5.0292v12.230325h-3.3813v-12.230325c0-2.76345-2.246625-5.019525-5.00805-5.0292-2.77155 0-5.0274 2.256075-5.0274 5.0292v12.230325h-3.3813v-20.6478h3.3813v1.68435c1.449-1.0854 3.20715-1.67625 5.028525-1.677375l.1719.002025c2.578725.060075 4.98015 1.305675 6.526575 3.359025 1.5903-2.1123 4.0644-3.359475 6.71805-3.36105l.172125.002025c4.532175.1053 8.216775 3.8772 8.216775 8.408475z"/><path d="m113.5926 28.00215h-3.3813v-12.260475c0-2.773125-2.256075-5.029425-5.0292-5.029425h-.4347c-2.773125 0-5.028975 2.2563-5.028975 5.029425v3.8196c0 2.773125 2.25585 5.0292 5.028975 5.0292h.4347c1.341225 0 2.619225-.517725 3.5982-1.458l.981225-.97515v.8739c0 .5031-.00405 1.3635-.007425 2.10915-.002475.56925-.004725 1.071675-.004725 1.296225v.203175l-.17325.106425c-1.303425.8019-2.82285 1.226025-4.394025 1.226025h-.4347c-4.637475 0-8.4105-3.77325-8.4105-8.41095v-3.8196c0-4.6377 3.773025-8.410725 8.4105-8.410725h.4347c4.637475 0 8.4105 3.773025 8.4105 8.410725z"/><path d="m115.076925 27.972675h-.73665v-3.384675h.735975c2.7648-.0072 5.0148-2.262375 5.0148-5.026725v-3.8196c0-2.7648-2.25-5.0202-5.0157-5.0274h-.735075v-3.384225h.735975c4.629825.0072 8.3961 3.780675 8.3961 8.411625v3.8196c0 4.62915-3.766275 8.402625-8.395425 8.4114z"/><path d="m129.230775 27.972675h-.73575c-4.6233-.01485-8.384175-3.7881-8.384175-8.4114v-3.8196c0-4.627125 3.764475-8.4006 8.391825-8.411625h.73665v3.384225h-.735975c-2.76255.009-5.010975 2.2644-5.010975 5.0274v3.8196c0 2.758275 2.24505 5.013225 5.00445 5.026725h.73395z"/></g></g></svg>